<?xml version="1.0" encoding="utf-8"?>
<!-- Generator: Adobe Illustrator 25.0.0, SVG Export Plug-In . SVG Version: 6.00 Build 0)  -->
<svg version="1.1" id="Layer_1" xmlns="http://www.w3.org/2000/svg" xmlns:xlink="http://www.w3.org/1999/xlink" x="0px" y="0px"
	 viewBox="0 0 48 48" style="enable-background:new 0 0 48 48;" xml:space="preserve">
<path d="M4,24c0,11,9,20,20,20c3.3,0,6.3-0.9,9.1-2.3l7.8,2.2c1.8,0.5,3.6-1.3,3.1-3.1l-2.2-7.8c1.4-2.7,2.3-5.8,2.3-9.1
	c0-11-9-20-20-20S4,13,4,24z M41,24c0,3-0.8,5.8-2.2,8.3c-0.2,0.3-0.2,0.8-0.1,1.1l2.1,7.4l-7.4-2.1c-0.4-0.1-0.8-0.1-1.1,0.1
	C29.8,40.2,27,41,24,41c-9.4,0-17-7.6-17-17S14.6,7,24,7S41,14.6,41,24z"/>
</svg>
